<svg width="25" height="25" viewBox="0 0 25 25" fill="none" xmlns="http://www.w3.org/2000/svg">
<path opacity="0.5" fill-rule="evenodd" clip-rule="evenodd" d="M25.0003 12.5C25.0003 19.4033 19.4038 24.9997 12.5003 24.9997C11.045 24.9997 9.64776 24.751 8.34883 24.2938C7.80197 22.9707 7.50024 21.5205 7.50024 19.9998C7.50024 17.2234 8.50608 14.6818 10.1732 12.7198C11.6378 14.8517 14.0933 16.2499 16.8753 16.2499C19.8271 16.2499 22.4114 14.6757 23.8343 12.321C24.1334 11.826 25.0003 11.9217 25.0003 12.5Z" fill="#1C274C"/>
<path d="M0 12.4997C0 17.9478 3.48566 22.5818 8.3486 24.2935C7.80174 22.9704 7.50001 21.5202 7.50001 19.9995C7.50001 17.223 8.50585 14.6815 10.173 12.7194C9.27535 11.4126 8.75002 9.83001 8.75002 8.12478C8.75002 5.17292 10.3243 2.58874 12.679 1.16592C13.174 0.866814 13.0784 0 12.5 0C5.59645 0 0 5.59629 0 12.4997Z" fill="#1C274C"/>
</svg>
